<?xml version="1.0" encoding="UTF-8" standalone="no"?>
<!DOCTYPE svg PUBLIC "-//W3C//DTD SVG 1.0//EN" "http://www.w3.org/TR/2001/PR-SVG-20010719/DTD/svg10.dtd">
<svg width="850px" height="420px" viewBox="92 40 891 417" xmlns="http://www.w3.org/2000/svg" xmlns:xlink="http://www.w3.org/1999/xlink">
  <text font-size="12.8" style="fill: #000000;text-anchor:start;font-family:sans-serif;font-style:normal;font-weight:normal" x="211" y="71">
    <tspan x="211" y="71"></tspan>
  </text>
  <g>
    <line style="fill: none; fill-opacity:0; stroke-width: 2; stroke: #000000" x1="327.506" y1="116.5" x2="496.45" y2="116.5"/>
    <line style="fill: none; fill-opacity:0; stroke-width: 2; stroke: #000000" x1="327.506" y1="40.5" x2="496.45" y2="40.5"/>
    <text font-size="12.8" style="fill: #000000;text-anchor:middle;font-family:sans-serif;font-style:normal;font-weight:normal" x="411.978" y="76.1">
      <tspan x="411.978" y="76.1">Centralized storage of</tspan>
      <tspan x="411.978" y="92.1">performance data</tspan>
    </text>
  </g>
  <g>
    <line style="fill: none; fill-opacity:0; stroke-width: 2; stroke: #000000" x1="334.306" y1="277" x2="550.584" y2="277"/>
    <line style="fill: none; fill-opacity:0; stroke-width: 2; stroke: #000000" x1="334.306" y1="201" x2="550.584" y2="201"/>
    <text font-size="12.8" style="fill: #000000;text-anchor:middle;font-family:sans-serif;font-style:normal;font-weight:normal" x="442.445" y="236.6">
      <tspan x="442.445" y="236.6">accounting data in </tspan>
      <tspan x="442.445" y="252.6">Open XDMoD datawarehouse</tspan>
    </text>
  </g>
  <g>
    <rect style="fill: #ffffff" x="109.425" y="213" width="165.15" height="54"/>
    <rect style="fill: none; fill-opacity:0; stroke-width: 2; stroke: #000000" x="109.425" y="213" width="165.15" height="54"/>
    <text font-size="12.8" style="fill: #000000;text-anchor:middle;font-family:sans-serif;font-style:normal;font-weight:normal" x="192" y="237.7">
      <tspan x="192" y="237.7">SLURM resource</tspan>
      <tspan x="192" y="253.7">manager</tspan>
    </text>
  </g>
  <g>
    <rect style="fill: #ffffff" x="93.2" y="52" width="194.6" height="54"/>
    <rect style="fill: none; fill-opacity:0; stroke-width: 2; stroke: #000000" x="93.2" y="52" width="194.6" height="54"/>
    <text font-size="12.8" style="fill: #000000;text-anchor:middle;font-family:sans-serif;font-style:normal;font-weight:normal" x="190.5" y="76.7">
      <tspan x="190.5" y="76.7">Data collection software</tspan>
      <tspan x="190.5" y="92.7">running on compute nodes</tspan>
    </text>
  </g>
  <g>
    <line style="fill: none; fill-opacity:0; stroke-width: 2; stroke: #000000" x1="287.8" y1="79" x2="317.771" y2="78.6226"/>
    <polygon style="fill: #000000" points="325.27,78.5282 315.334,83.6537 317.771,78.6226 315.208,73.6545 "/>
    <polygon style="fill: none; fill-opacity:0; stroke-width: 2; stroke: #000000" points="325.27,78.5282 315.334,83.6537 317.771,78.6226 315.208,73.6545 "/>
  </g>
  <g>
    <line style="fill: none; fill-opacity:0; stroke-width: 2; stroke: #000000" x1="274.574" y1="240" x2="324.765" y2="239.162"/>
    <polygon style="fill: #000000" points="332.264,239.037 322.349,244.203 324.765,239.162 322.182,234.205 "/>
    <polygon style="fill: none; fill-opacity:0; stroke-width: 2; stroke: #000000" points="332.264,239.037 322.349,244.203 324.765,239.162 322.182,234.205 "/>
  </g>
  <g>
    <ellipse style="fill: #ffffff" cx="714.467" cy="120.06" rx="80.9275" ry="43.4543"/>
    <ellipse style="fill: none; fill-opacity:0; stroke-width: 2; stroke: #000000" cx="714.467" cy="120.06" rx="80.9275" ry="43.4543"/>
    <text font-size="12.8" style="fill: #000000;text-anchor:middle;font-family:sans-serif;font-style:normal;font-weight:normal" x="714.467" y="109.76">
      <tspan x="714.467" y="109.76">SUPReMM</tspan>
      <tspan x="714.467" y="125.76">summarization</tspan>
      <tspan x="714.467" y="141.76">scripts</tspan>
    </text>
  </g>
  <g>
    <line style="fill: none; fill-opacity:0; stroke-width: 2; stroke: #000000" x1="776.944" y1="308" x2="961.055" y2="308"/>
    <line style="fill: none; fill-opacity:0; stroke-width: 2; stroke: #000000" x1="776.944" y1="232" x2="961.055" y2="232"/>
    <text font-size="12.8" style="fill: #000000;text-anchor:middle;font-family:sans-serif;font-style:normal;font-weight:normal" x="869" y="267.6">
      <tspan x="869" y="267.6">Job summary documents</tspan>
      <tspan x="869" y="283.6">in mongoDb instance</tspan>
    </text>
  </g>
  <g>
    <ellipse style="fill: #ffffff" cx="674.058" cy="419.652" rx="64.1915" ry="35.7197"/>
    <ellipse style="fill: none; fill-opacity:0; stroke-width: 2; stroke: #000000" cx="674.058" cy="419.652" rx="64.1915" ry="35.7197"/>
    <text font-size="12.8" style="fill: #000000;text-anchor:middle;font-family:sans-serif;font-style:normal;font-weight:normal" x="674.058" y="417.352">
      <tspan x="674.058" y="417.352">SUPReMM </tspan>
      <tspan x="674.058" y="433.352">ETL process </tspan>
    </text>
  </g>
  <g>
    <polyline style="fill: none; fill-opacity:0; stroke-width: 2; stroke: #000000" points="961.055,270 982.055,270 982.055,433.321 743.099,433.321 "/>
    <polygon style="fill: #000000" points="735.599,433.321 745.599,428.321 743.099,433.321 745.599,438.321 "/>
    <polygon style="fill: none; fill-opacity:0; stroke-width: 2; stroke: #000000" points="735.599,433.321 745.599,428.321 743.099,433.321 745.599,438.321 "/>
  </g>
  <g>
    <line style="fill: none; fill-opacity:0; stroke-width: 2; stroke: #000000" x1="332.806" y1="457" x2="549.084" y2="457"/>
    <line style="fill: none; fill-opacity:0; stroke-width: 2; stroke: #000000" x1="332.806" y1="381" x2="549.084" y2="381"/>
    <text font-size="12.8" style="fill: #000000;text-anchor:middle;font-family:sans-serif;font-style:normal;font-weight:normal" x="440.945" y="416.6">
      <tspan x="440.945" y="416.6">SUPReMM data in </tspan>
      <tspan x="440.945" y="432.6">Open XDMoD datawarehouse</tspan>
    </text>
  </g>
  <g>
    <line style="fill: none; fill-opacity:0; stroke-width: 2; stroke: #000000" x1="609.866" y1="419.652" x2="558.624" y2="419.104"/>
    <polygon style="fill: #000000" points="551.124,419.024 561.177,414.131 558.624,419.104 561.07,424.131 "/>
    <polygon style="fill: none; fill-opacity:0; stroke-width: 2; stroke: #000000" points="551.124,419.024 561.177,414.131 558.624,419.104 561.07,424.131 "/>
  </g>
  <g>
    <polyline style="fill: none; fill-opacity:0; stroke-width: 2; stroke: #000000" points="550.584,220 595.142,220 595.142,136.69 629.964,136.69 "/>
    <polygon style="fill: #000000" points="637.464,136.69 627.464,141.69 629.964,136.69 627.464,131.69 "/>
    <polygon style="fill: none; fill-opacity:0; stroke-width: 2; stroke: #000000" points="637.464,136.69 627.464,141.69 629.964,136.69 627.464,131.69 "/>
  </g>
  <g>
    <polyline style="fill: none; fill-opacity:0; stroke-width: 2; stroke: #000000" points="496.45,78.5 568.075,78.5 568.075,103.431 629.964,103.431 "/>
    <polygon style="fill: #000000" points="637.464,103.431 627.464,108.431 629.964,103.431 627.464,98.4313 "/>
    <polygon style="fill: none; fill-opacity:0; stroke-width: 2; stroke: #000000" points="637.464,103.431 627.464,108.431 629.964,103.431 627.464,98.4313 "/>
  </g>
  <g>
    <polyline style="fill: none; fill-opacity:0; stroke-width: 2; stroke: #000000" points="795.395,120.06 816.395,120.06 816.395,195.03 755.944,195.03 755.944,270 767.208,270 "/>
    <polygon style="fill: #000000" points="774.708,270 764.708,275 767.208,270 764.708,265 "/>
    <polygon style="fill: none; fill-opacity:0; stroke-width: 2; stroke: #000000" points="774.708,270 764.708,275 767.208,270 764.708,265 "/>
  </g>
  <g>
    <polyline style="fill: none; fill-opacity:0; stroke-width: 2; stroke: #000000" points="550.584,258 674.058,258 674.058,374.196 "/>
    <polygon style="fill: #000000" points="674.058,381.696 669.058,371.696 674.058,374.196 679.058,371.696 "/>
    <polygon style="fill: none; fill-opacity:0; stroke-width: 2; stroke: #000000" points="674.058,381.696 669.058,371.696 674.058,374.196 679.058,371.696 "/>
  </g>
</svg>
