<svg xmlns:xlink="http://www.w3.org/1999/xlink" version="1.1" style="font-family:'lucida grande', 'lucida sans unicode', arial, helvetica, sans-serif;font-size:12px;" xmlns="http://www.w3.org/2000/svg" width="916" height="484"><desc>Created with Highcharts 4.2.5</desc><defs><clipPath id="highcharts-4"><rect x="1" y="0" width="809" height="370"></rect></clipPath></defs><rect x="0" y="0" width="916" height="484" fill="#FFFFFF" class=" highcharts-background"></rect><g class="highcharts-grid"></g><g class="highcharts-grid"><path fill="none" d="M 86 421.6875 L 896 421.6875" stroke="#D8D8D8" stroke-width="1.375" opacity="1"></path><path fill="none" d="M 86 368.6875 L 896 368.6875" stroke="#D8D8D8" stroke-width="1.375" opacity="1"></path><path fill="none" d="M 86 315.6875 L 896 315.6875" stroke="#D8D8D8" stroke-width="1.375" opacity="1"></path><path fill="none" d="M 86 262.6875 L 896 262.6875" stroke="#D8D8D8" stroke-width="1.375" opacity="1"></path><path fill="none" d="M 86 209.6875 L 896 209.6875" stroke="#D8D8D8" stroke-width="1.375" opacity="1"></path><path fill="none" d="M 86 156.6875 L 896 156.6875" stroke="#D8D8D8" stroke-width="1.375" opacity="1"></path><path fill="none" d="M 86 103.6875 L 896 103.6875" stroke="#D8D8D8" stroke-width="1.375" opacity="1"></path><path fill="none" d="M 86 49.3125 L 896 49.3125" stroke="#D8D8D8" stroke-width="1.375" opacity="1"></path></g><g class="highcharts-axis"><path fill="none" d="M 159.5 421 L 159.5 431" stroke="#C0D0E0" stroke-width="1" opacity="1"></path><path fill="none" d="M 232.5 421 L 232.5 431" stroke="#C0D0E0" stroke-width="1" opacity="1"></path><path fill="none" d="M 306.5 421 L 306.5 431" stroke="#C0D0E0" stroke-width="1" opacity="1"></path><path fill="none" d="M 380.5 421 L 380.5 431" stroke="#C0D0E0" stroke-width="1" opacity="1"></path><path fill="none" d="M 453.5 421 L 453.5 431" stroke="#C0D0E0" stroke-width="1" opacity="1"></path><path fill="none" d="M 527.5 421 L 527.5 431" stroke="#C0D0E0" stroke-width="1" opacity="1"></path><path fill="none" d="M 600.5 421 L 600.5 431" stroke="#C0D0E0" stroke-width="1" opacity="1"></path><path fill="none" d="M 674.5 421 L 674.5 431" stroke="#C0D0E0" stroke-width="1" opacity="1"></path><path fill="none" d="M 748.5 421 L 748.5 431" stroke="#C0D0E0" stroke-width="1" opacity="1"></path><path fill="none" d="M 821.5 421 L 821.5 431" stroke="#C0D0E0" stroke-width="1" opacity="1"></path><path fill="none" d="M 895.5 421 L 895.5 431" stroke="#C0D0E0" stroke-width="1" opacity="1"></path><path fill="none" d="M 85.5 421 L 85.5 431" stroke="#C0D0E0" stroke-width="1" opacity="1"></path><text x="491" text-anchor="middle" transform="translate(0,0)" class=" highcharts-xaxis-title" style="color:#000000;font-weight:bold;font-size:15px;fill:#000000;" y="454"><tspan>CPU User Value</tspan></text><path fill="none" d="M 86 421.375 L 896 421.375" stroke="#C0D0E0" stroke-width="2.75"></path></g><g class="highcharts-axis"><text x="30" text-anchor="middle" transform="translate(0,0) rotate(270 30 235.5)" class=" highcharts-yaxis-title" style="color:#1199ff;font-weight:bold;font-size:15px;fill:#1199ff;" y="235.5"><tspan>Number of Jobs</tspan></text><path fill="none" d="M 85.625 50 L 85.625 421" stroke="#C0D0E0" stroke-width="2.75"></path></g><g class="highcharts-series-group"><g class="highcharts-series highcharts-series-0" transform="translate(86,50) scale(1 1)" clip-path="url(#highcharts-4)"><rect x="4" y="362" width="66" height="10" fill="#1199ff" rx="0" ry="0"></rect><rect x="77" y="319" width="67" height="53" fill="#1199ff" rx="0" ry="0"></rect><rect x="151" y="345" width="66" height="27" fill="#1199ff" rx="0" ry="0"></rect><rect x="225" y="348" width="66" height="24" fill="#1199ff" rx="0" ry="0"></rect><rect x="298" y="342" width="67" height="30" fill="#1199ff" rx="0" ry="0"></rect><rect x="372" y="326" width="66" height="46" fill="#1199ff" rx="0" ry="0"></rect><rect x="445" y="311" width="67" height="61" fill="#1199ff" rx="0" ry="0"></rect><rect x="519" y="302" width="66" height="70" fill="#1199ff" rx="0" ry="0"></rect><rect x="593" y="306" width="66" height="66" fill="#1199ff" rx="0" ry="0"></rect><rect x="666" y="284" width="67" height="88" fill="#1199ff" rx="0" ry="0"></rect><rect x="740" y="60" width="66" height="312" fill="#1199ff" rx="0" ry="0"></rect></g><g class="highcharts-markers highcharts-series-0" transform="translate(86,50) scale(1 1)" clip-path="none"></g></g><text x="453" text-anchor="middle" class="highcharts-title" style="color:#000000;font-size:19px;fill:#000000;width:842px;" y="25"><tspan>Number of Jobs by CPU usage</tspan></text><g class="highcharts-axis-labels highcharts-xaxis-labels"></g><g class="highcharts-axis-labels highcharts-yaxis-labels"><text x="71" style="color:#606060;cursor:default;font-size:14px;font-weight:normal;fill:#606060;width:292px;text-overflow:clip;" text-anchor="end" transform="translate(0,0)" y="426" opacity="1">0k</text><text x="71" style="color:#606060;cursor:default;font-size:14px;font-weight:normal;fill:#606060;width:292px;text-overflow:clip;" text-anchor="end" transform="translate(0,0)" y="373" opacity="1">100k</text><text x="71" style="color:#606060;cursor:default;font-size:14px;font-weight:normal;fill:#606060;width:292px;text-overflow:clip;" text-anchor="end" transform="translate(0,0)" y="320" opacity="1">200k</text><text x="71" style="color:#606060;cursor:default;font-size:14px;font-weight:normal;fill:#606060;width:292px;text-overflow:clip;" text-anchor="end" transform="translate(0,0)" y="267" opacity="1">300k</text><text x="71" style="color:#606060;cursor:default;font-size:14px;font-weight:normal;fill:#606060;width:292px;text-overflow:clip;" text-anchor="end" transform="translate(0,0)" y="214" opacity="1">400k</text><text x="71" style="color:#606060;cursor:default;font-size:14px;font-weight:normal;fill:#606060;width:292px;text-overflow:clip;" text-anchor="end" transform="translate(0,0)" y="161" opacity="1">500k</text><text x="71" style="color:#606060;cursor:default;font-size:14px;font-weight:normal;fill:#606060;width:292px;text-overflow:clip;" text-anchor="end" transform="translate(0,0)" y="108" opacity="1">600k</text><text x="71" style="color:#606060;cursor:default;font-size:14px;font-weight:normal;fill:#606060;width:292px;text-overflow:clip;" text-anchor="end" transform="translate(0,0)" y="55" opacity="1">700k</text></g><g class="highcharts-tooltip" style="cursor:default;padding:0;pointer-events:none;white-space:nowrap;" transform="translate(0,-9999)"><path fill="none" d="M 3.5 0.5 L 13.5 0.5 C 16.5 0.5 16.5 0.5 16.5 3.5 L 16.5 13.5 C 16.5 16.5 16.5 16.5 13.5 16.5 L 3.5 16.5 C 0.5 16.5 0.5 16.5 0.5 13.5 L 0.5 3.5 C 0.5 0.5 0.5 0.5 3.5 0.5"  stroke="black" stroke-opacity="0.049999999999999996" stroke-width="5" transform="translate(1, 1)"></path><path fill="none" d="M 3.5 0.5 L 13.5 0.5 C 16.5 0.5 16.5 0.5 16.5 3.5 L 16.5 13.5 C 16.5 16.5 16.5 16.5 13.5 16.5 L 3.5 16.5 C 0.5 16.5 0.5 16.5 0.5 13.5 L 0.5 3.5 C 0.5 0.5 0.5 0.5 3.5 0.5"  stroke="black" stroke-opacity="0.09999999999999999" stroke-width="3" transform="translate(1, 1)"></path><path fill="none" d="M 3.5 0.5 L 13.5 0.5 C 16.5 0.5 16.5 0.5 16.5 3.5 L 16.5 13.5 C 16.5 16.5 16.5 16.5 13.5 16.5 L 3.5 16.5 C 0.5 16.5 0.5 16.5 0.5 13.5 L 0.5 3.5 C 0.5 0.5 0.5 0.5 3.5 0.5"  stroke="black" stroke-opacity="0.15" stroke-width="1" transform="translate(1, 1)"></path><path fill="rgb(249, 249, 249)" fill-opacity=" .85" d="M 3.5 0.5 L 13.5 0.5 C 16.5 0.5 16.5 0.5 16.5 3.5 L 16.5 13.5 C 16.5 16.5 16.5 16.5 13.5 16.5 L 3.5 16.5 C 0.5 16.5 0.5 16.5 0.5 13.5 L 0.5 3.5 C 0.5 0.5 0.5 0.5 3.5 0.5"></path><text x="8" style="font-size:12px;color:#333333;fill:#333333;" y="20"></text></g><text x="906" text-anchor="end" style="cursor:pointer;color:#909090;font-size:9px;fill:#909090;" y="479"><tspan>2018-05-29 to 2018-08-27  Src: SUPREMM. Powered by XDMoD/Highcharts</tspan></text></svg>
