<svg xmlns:xlink="http://www.w3.org/1999/xlink" version="1.1" style="font-family:'lucida grande', 'lucida sans unicode', arial, helvetica, sans-serif;font-size:12px;" xmlns="http://www.w3.org/2000/svg" width="916" height="484"><desc>Created with Highcharts 4.2.5</desc><defs><clipPath id="highcharts-4"><rect x="0" y="0" width="886" height="409"></rect></clipPath></defs><rect x="0" y="0" width="916" height="484" fill="#FFFFFF" class=" highcharts-background"></rect><g class="highcharts-series-group"><g class="highcharts-series highcharts-series-0" transform="translate(10,50) scale(1 1)"><path fill="#1199ff" d="M 442.9675141240106 53.50000330825125 A 159.5 159.5 0 0 1 553.3210760617537 328.1933599500281 L 443 213 A 0 0 0 0 0 443 213 Z" stroke-linejoin="round" transform="translate(0,0)"></path><path fill="#db4230" d="M 553.2058275604692 328.30362341102784 A 159.5 159.5 0 0 1 283.5043757652643 211.81853905186148 L 443 213 A 0 0 0 0 0 443 213 Z" stroke-linejoin="round" transform="translate(0,0)"></path><path fill="#4e665d" d="M 283.50563697382097 211.6590440449398 A 159.5 159.5 0 0 1 320.7416792223175 110.56390772476097 L 443 213 A 0 0 0 0 0 443 213 Z" stroke-linejoin="round" transform="translate(0,0)"></path><path fill="#f4a221" d="M 320.84417642667535 110.44170064240154 A 159.5 159.5 0 0 1 399.16828167422574 59.64084484906033 L 443 213 A 0 0 0 0 0 443 213 Z" stroke-linejoin="round" transform="translate(0,0)"></path><path fill="#66ff00" d="M 399.3216627196742 59.59708981761102 A 159.5 159.5 0 0 1 419.7342622782572 55.20597144295013 L 443 213 A 0 0 0 0 0 443 213 Z" stroke-linejoin="round" transform="translate(0,0)"></path><path fill="#33abab" d="M 419.8920679133832 55.1827846061137 A 159.5 159.5 0 0 1 431.9413368810448 53.883828697327374 L 443 213 A 0 0 0 0 0 443 213 Z" stroke-linejoin="round" transform="translate(0,0)"></path><path fill="#a88d95" d="M 432.10045855515926 53.87284959413054 A 159.5 159.5 0 0 1 437.03784697314416 53.611472397526825 L 443 213 A 0 0 0 0 0 443 213 Z" stroke-linejoin="round" transform="translate(0,0)"></path><path fill="#789abc" d="M 437.1972384552582 53.605589939750814 A 159.5 159.5 0 0 1 441.1834968986649 53.51034417090605 L 443 213 A 0 0 0 0 0 443 213 Z" stroke-linejoin="round" transform="translate(0,0)"></path><path fill="#ff99cc" d="M 441.34298743616387 53.50860741292874 A 159.5 159.5 0 0 1 442.2999598761431 53.501536233652104 L 443 213 A 0 0 0 0 0 443 213 Z" stroke-linejoin="round" transform="translate(0,0)"></path><path fill="#00ccff" d="M 442.4594586633464 53.500915942870165 A 159.5 159.5 0 0 1 442.7784576998776 53.50015385897936 L 443 213 A 0 0 0 0 0 443 213 Z" stroke-linejoin="round" transform="translate(0,0)"></path><path fill="#ffbc71" d="M 442.9379576302065 53.50001206663259 A 159.5 159.5 0 0 1 442.7784576998776 53.50015385897936 L 443 213 A 0 0 0 0 0 443 213 Z" stroke-linejoin="round" transform="translate(0,0)"></path><path fill="#a57e81" d="M 442.9379576302065 53.50001206663259 A 159.5 159.5 0 0 1 442.7784576998776 53.50015385897936 L 443 213 A 0 0 0 0 0 443 213 Z" stroke-linejoin="round" transform="translate(0,0)"></path></g><g class="highcharts-markers highcharts-series-0" transform="translate(10,50) scale(1 1)"></g></g><text x="453" text-anchor="middle" class="highcharts-title" style="color:#000000;font-size:19px;fill:#000000;width:842px;" y="25"><tspan>CPU Hours by Application</tspan></text><g class="highcharts-data-labels highcharts-series-0" visibility="visible" transform="translate(10,50) scale(1 1)" opacity="1"><path fill="none" d="M 623.8844481770404 141.96695179238344 C 618.8844481770404 141.96695179238344 609.6029469539777 145.68901238381437 600.3214457309149 149.41107297524533 L 591.039944507852 153.1331335666763" stroke="#1199ff" stroke-width="1"></path><path fill="none" d="M 362.7650322795635 386.42512651168283 C 367.7650322795635 386.42512651168283 371.73521527272635 377.24701957175233 375.70539826588924 368.06891263182183 L 379.67558125905214 358.89080569189133" stroke="#db4230" stroke-width="1"></path><path fill="none" d="M 296.01408520560926 338 C 301.01408520560926 338 274.5945559982541 150.3722571585381 283.97647488414526 153.83341274859168 L 293.3583937700364 157.29456833864526" stroke="#4e665d" stroke-width="1"></path><path fill="none" d="M 266.4482585340504 293 C 271.4482585340504 293 345.4223446858533 61.838620796855906 350.85842576185036 70.23201239591685 L 356.2945068378474 78.6254039949778" stroke="#f4a221" stroke-width="1"></path><path fill="none" d="M 251.85489531013718 248 C 256.8548953101372 248 405.36432324266747 36.98986970827701 407.4610183266414 46.76759284430615 L 409.55771341061535 56.54531598033529" stroke="#66ff00" stroke-width="1"></path><path fill="none" d="M 248.73827645294995 203 C 253.73827645294995 203 423.8436680394156 34.02511396329204 424.91087316256795 43.96800455029527 L 425.9780782857203 53.910895137298496" stroke="#33abab" stroke-width="1"></path><path fill="none" d="M 256.5061984529499 158 C 261.5061984529499 158 433.56625724897185 33.2480697517948 434.0918139481935 43.234249709912085 L 434.6173706474151 53.22042966802937" stroke="#a88d95" stroke-width="1"></path><path fill="none" d="M 276.72383933141265 113 C 281.72383933141265 113 438.7515955187124 33.05028264340069 438.9882754341045 43.0474813819299 L 439.22495534949655 53.044680120459105" stroke="#789abc" stroke-width="1"></path><path fill="none" d="M 315.4030995497847 68 C 320.4030995497847 68 441.7243160122249 33.00453312029482 441.79538475806197 43.00428057877422 L 441.86645350389904 53.00402803725362" stroke="#ff99cc" stroke-width="1"></path><path fill="none" d="M 437.6496462331802 23 C 442.6496462331802 23 442.66813455859943 33.000306782076066 442.68662288402567 43.00028969115261 L 442.7051112094519 53.00027260022915" stroke="#00ccff" stroke-width="1"></path><g style="cursor:pointer;" transform="translate(629,132)"><text x="5" style="font-size:14px;font-weight:normal;color:#000000;text-shadow:false;fill:#000000;" y="19"><tspan style="font-weight:bold">namd</tspan><tspan x="5" dy="17">160,753</tspan></text></g><g style="cursor:pointer;" transform="translate(289,376)"><text x="5" style="font-size:14px;font-weight:normal;color:#000000;text-shadow:false;fill:#000000;" y="19"><tspan style="font-weight:bold">gromacs</tspan><tspan x="5" dy="17">158,270</tspan></text></g><g style="cursor:pointer;" transform="translate(181,328)"><text x="5" style="font-size:14px;font-weight:normal;color:#000000;text-shadow:false;fill:#000000;" y="19"><tspan style="font-weight:bold">PROPRIETARY</tspan><tspan x="5" dy="17">46,618</tspan></text></g><g style="cursor:pointer;" transform="translate(153,283)"><text x="5" style="font-size:14px;font-weight:normal;color:#000000;text-shadow:false;fill:#000000;" y="19"><tspan style="font-weight:bold">uncategorized</tspan><tspan x="5" dy="17">40,237</tspan></text></g><g style="cursor:pointer;" transform="translate(159,238)"><text x="5" style="font-size:14px;font-weight:normal;color:#000000;text-shadow:false;fill:#000000;" y="19"><tspan style="font-weight:bold">berkeleygw</tspan><tspan x="5" dy="17">8,890</tspan></text></g><g style="cursor:pointer;" transform="translate(183,193)"><text x="5" style="font-size:14px;font-weight:normal;color:#000000;text-shadow:false;fill:#000000;" y="19"><tspan style="font-weight:bold">paratec</tspan><tspan x="5" dy="17">5,208</tspan></text></g><g style="cursor:pointer;" transform="translate(165,148)"><text x="5" style="font-size:14px;font-weight:normal;color:#000000;text-shadow:false;fill:#000000;" y="19"><tspan style="font-weight:bold">q-espresso</tspan><tspan x="5" dy="17">2,137</tspan></text></g><g style="cursor:pointer;" transform="translate(213,103)"><text x="5" style="font-size:14px;font-weight:normal;color:#000000;text-shadow:false;fill:#000000;" y="19"><tspan style="font-weight:bold">python</tspan><tspan x="5" dy="17">1,771</tspan></text></g><g style="cursor:pointer;" transform="translate(271,58)"><text x="5" style="font-size:14px;font-weight:normal;color:#000000;text-shadow:false;fill:#000000;" y="19"><tspan style="font-weight:bold">vmd</tspan><tspan x="5" dy="17">468</tspan></text></g><g style="cursor:pointer;" transform="translate(285,13)"><text x="5" style="font-size:14px;font-weight:normal;color:#000000;text-shadow:false;fill:#000000;" y="19"><tspan style="font-weight:bold">system applications</tspan><tspan x="5" dy="17">243</tspan></text></g><g style="cursor:pointer;" transform="translate(0,-9999)"><text x="5" style="font-size:14px;font-weight:normal;color:#000000;text-shadow:false;fill:#000000;" y="19"><tspan style="font-weight:bold">charm++</tspan><tspan x="5" dy="17">3</tspan></text></g><g style="cursor:pointer;" transform="translate(0,-9999)"><text x="5" style="font-size:14px;font-weight:normal;color:#000000;text-shadow:false;fill:#000000;" y="19"><tspan style="font-weight:bold">All 1 others</tspan><tspan x="5" dy="17">1</tspan></text></g></g><g class="highcharts-tooltip" style="cursor:default;padding:0;pointer-events:none;white-space:nowrap;" transform="translate(0,-9999)"><path fill="none" d="M 3.5 0.5 L 13.5 0.5 C 16.5 0.5 16.5 0.5 16.5 3.5 L 16.5 13.5 C 16.5 16.5 16.5 16.5 13.5 16.5 L 3.5 16.5 C 0.5 16.5 0.5 16.5 0.5 13.5 L 0.5 3.5 C 0.5 0.5 0.5 0.5 3.5 0.5"  stroke="black" stroke-opacity="0.049999999999999996" stroke-width="5" transform="translate(1, 1)"></path><path fill="none" d="M 3.5 0.5 L 13.5 0.5 C 16.5 0.5 16.5 0.5 16.5 3.5 L 16.5 13.5 C 16.5 16.5 16.5 16.5 13.5 16.5 L 3.5 16.5 C 0.5 16.5 0.5 16.5 0.5 13.5 L 0.5 3.5 C 0.5 0.5 0.5 0.5 3.5 0.5"  stroke="black" stroke-opacity="0.09999999999999999" stroke-width="3" transform="translate(1, 1)"></path><path fill="none" d="M 3.5 0.5 L 13.5 0.5 C 16.5 0.5 16.5 0.5 16.5 3.5 L 16.5 13.5 C 16.5 16.5 16.5 16.5 13.5 16.5 L 3.5 16.5 C 0.5 16.5 0.5 16.5 0.5 13.5 L 0.5 3.5 C 0.5 0.5 0.5 0.5 3.5 0.5"  stroke="black" stroke-opacity="0.15" stroke-width="1" transform="translate(1, 1)"></path><path fill="rgb(249, 249, 249)" fill-opacity=" .85" d="M 3.5 0.5 L 13.5 0.5 C 16.5 0.5 16.5 0.5 16.5 3.5 L 16.5 13.5 C 16.5 16.5 16.5 16.5 13.5 16.5 L 3.5 16.5 C 0.5 16.5 0.5 16.5 0.5 13.5 L 0.5 3.5 C 0.5 0.5 0.5 0.5 3.5 0.5"></path><text x="8" style="font-size:12px;color:#333333;fill:#333333;" y="20"></text></g><text x="906" text-anchor="end" style="cursor:pointer;color:#909090;font-size:9px;fill:#909090;" y="479"><tspan>2018-05-29 to 2018-08-27  Src: SUPREMM. Powered by XDMoD/Highcharts</tspan></text></svg>
